<?xml version="1.0" encoding="iso-8859-1"?>
<!-- Uploaded to: SVG Repo, www.svgrepo.com, Generator: SVG Repo Mixer Tools -->
<!DOCTYPE svg PUBLIC "-//W3C//DTD SVG 1.1//EN" "http://www.w3.org/Graphics/SVG/1.1/DTD/svg11.dtd">
<svg fill="#000000" version="1.1" id="Capa_1" xmlns="http://www.w3.org/2000/svg" xmlns:xlink="http://www.w3.org/1999/xlink" 
	 width="800px" height="800px" viewBox="0 0 500.863 500.863"
	 xml:space="preserve">
<g>
	<path d="M368.328,86.2h-43.087V35.792c0-7.571,2.604-7.571,4.006-7.571c4.412,0,10.823,3.756,12.719,5.073
		c0.803,0.555,1.745,0.845,2.685,0.868c2.76,0.084,5.08-2.112,5.08-4.874c0-0.353-0.041-0.7-0.117-1.031
		C349.131,7.422,334.126,0,321.243,0c-0.544,0-0.91,0.01-0.979,0.021h-97.646c-16.692,0-44.945,9.502-44.945,45.125
		c0,12.706-0.117,27.174-0.288,41.059h-44.849c-20.171,0-36.583,16.413-36.583,36.591v341.48c0,20.175,16.417,36.586,36.583,36.586
		h235.792c20.17,0,36.582-16.411,36.582-36.586V122.792C404.91,102.619,388.498,86.2,368.328,86.2z M222.779,9.775
		c0.011,0,0.011,0,0.011,0l97.876-0.012l0.569-0.01c4.477,0,13.702,1.217,17.229,10.709c-2.858-1.122-6.088-1.995-9.223-1.995
		c-4.131,0-13.768,1.686-13.768,17.325v97.769H186.424c0.343-19.068,0.997-58.541,0.997-88.423
		C187.421,10.785,218.985,9.775,222.779,9.775z M380.532,464.277c0,6.719-5.472,12.191-12.204,12.191H132.536
		c-6.719,0-12.191-5.473-12.191-12.191V122.792c0-6.726,5.472-12.2,12.191-12.2h44.506c-0.128,9.067-0.273,17.023-0.38,22.969
		h-1.742c-5.222,0-9.458,4.229-9.458,9.453c0,5.223,4.235,9.453,9.458,9.453h151.226c5.22,0,9.459-4.23,9.459-9.453
		c0-5.218-4.239-9.453-9.459-9.453h-0.905v-22.969h43.087c6.732,0,12.204,5.475,12.204,12.2V464.277z M356.945,248.81H143.929
		v-61.788h213.016V248.81z M147.178,319.542v-41.462h41.456v41.462H147.178z M208.972,319.542v-41.462h41.466v41.462H208.972z
		 M269.948,319.542v-41.462h41.459v41.462H269.948z M327.977,319.019V278.01h29.877v41.009H327.977z M188.638,374.427h-41.453
		v-41.462h41.453V374.427z M250.438,374.427h-41.466v-41.462h41.466V374.427z M311.418,374.427h-41.467v-41.462h41.467V374.427z
		 M147.587,387.843h41.464v41.467h-41.464V387.843z M209.374,387.843h41.464v41.467h-41.464V387.843z M270.356,387.843h41.47v41.467
		h-41.47V387.843z M327.672,335.4h30.079v92.28h-30.079V335.4z"/>
</g>
</svg>